<svg width="100" height="100" viewBox="0 0 100 100" fill="none" xmlns="http://www.w3.org/2000/svg">
<path d="M25 0H58.0813C59.7387 0.000353984 61.3282 0.659067 62.5 1.83125L85.6687 25C86.8409 26.1718 87.4996 27.7613 87.5 29.4187V64.3313L70.4375 47.2688C69.7952 46.6282 69.0212 46.1352 68.1692 45.8238C67.3172 45.5125 66.4077 45.3903 65.5037 45.4659C64.5998 45.5414 63.7231 45.8128 62.9346 46.2612C62.146 46.7096 61.4646 47.3243 60.9375 48.0625L49.1313 64.5875L38.075 57.95C36.8798 57.2319 35.4788 56.9342 34.0949 57.1041C32.7109 57.2739 31.4236 57.9017 30.4375 58.8875L12.5 76.825V12.5C12.5 9.18479 13.817 6.00537 16.1612 3.66117C18.5054 1.31696 21.6848 0 25 0ZM59.375 9.375V21.875C59.375 23.5326 60.0335 25.1223 61.2056 26.2944C62.3777 27.4665 63.9674 28.125 65.625 28.125H78.125L59.375 9.375ZM50.0125 34.375C50.0125 31.8886 49.0248 29.504 47.2666 27.7459C45.5085 25.9877 43.1239 25 40.6375 25C38.1511 25 35.7665 25.9877 34.0084 27.7459C32.2502 29.504 31.2625 31.8886 31.2625 34.375C31.2625 36.8614 32.2502 39.246 34.0084 41.0041C35.7665 42.7623 38.1511 43.75 40.6375 43.75C43.1239 43.75 45.5085 42.7623 47.2666 41.0041C49.0248 39.246 50.0125 36.8614 50.0125 34.375Z" fill="#848B9A"/>
<path d="M66.025 51.6875L87.5 73.175V87.5C87.5 90.8152 86.183 93.9946 83.8388 96.3388C81.4946 98.683 78.3152 100 75 100H25C21.6848 100 18.5054 98.683 16.1612 96.3388C13.817 93.9946 12.5 90.8152 12.5 87.5V85.6687L34.8625 63.3125L50.8625 72.9125L66.025 51.6875Z" fill="#848B9A"/>
</svg>
